<svg width="1024" height="1024" viewBox="0 0 1024 1024" xmlns="http://www.w3.org/2000/svg">
  <!-- Background gradient -->
  <defs>
    <linearGradient id="bg" x1="0%" y1="0%" x2="100%" y2="100%">
      <stop offset="0%" style="stop-color:#667eea;stop-opacity:1" />
      <stop offset="100%" style="stop-color:#764ba2;stop-opacity:1" />
    </linearGradient>
    <linearGradient id="runner" x1="0%" y1="0%" x2="100%" y2="100%">
      <stop offset="0%" style="stop-color:#ffffff;stop-opacity:1" />
      <stop offset="100%" style="stop-color:#f8f9fa;stop-opacity:1" />
    </linearGradient>
  </defs>
  
  <!-- Background circle -->
  <circle cx="512" cy="512" r="480" fill="url(#bg)" stroke="#5a6fd8" stroke-width="8"/>
  
  <!-- Running figure -->
  <g transform="translate(512, 512) scale(0.8)">
    <!-- Head -->
    <circle cx="0" cy="-120" r="25" fill="url(#runner)"/>
    
    <!-- Body -->
    <ellipse cx="0" cy="-60" rx="15" ry="40" fill="url(#runner)"/>
    
    <!-- Arms -->
    <ellipse cx="-35" cy="-80" rx="8" ry="25" fill="url(#runner)" transform="rotate(-30, -35, -80)"/>
    <ellipse cx="35" cy="-80" rx="8" ry="25" fill="url(#runner)" transform="rotate(30, 35, -80)"/>
    
    <!-- Legs -->
    <ellipse cx="-20" cy="20" rx="10" ry="35" fill="url(#runner)" transform="rotate(-15, -20, 20)"/>
    <ellipse cx="20" cy="20" rx="10" ry="35" fill="url(#runner)" transform="rotate(15, 20, 20)"/>
    
    <!-- Motion lines -->
    <line x1="-80" y1="-100" x2="-60" y2="-90" stroke="url(#runner)" stroke-width="4" opacity="0.6"/>
    <line x1="-75" y1="-110" x2="-55" y2="-100" stroke="url(#runner)" stroke-width="4" opacity="0.4"/>
    <line x1="-70" y1="-120" x2="-50" y2="-110" stroke="url(#runner)" stroke-width="4" opacity="0.2"/>
  </g>
  
  <!-- Speed lines -->
  <g opacity="0.3">
    <line x1="200" y1="200" x2="300" y2="200" stroke="white" stroke-width="3"/>
    <line x1="200" y1="220" x2="280" y2="220" stroke="white" stroke-width="3"/>
    <line x1="200" y1="240" x2="260" y2="240" stroke="white" stroke-width="3"/>
  </g>
</svg>
